HIERARCHY
ROOT Hips
{
  OFFSET 0.000 69.810 0.000
  CHANNELS 6 Xposition Yposition Zposition Zrotation Xrotation Yrotation
  JOINT LeftUpLeg
  {
    OFFSET 6.862 0.156 3.406
    CHANNELS 3 Zrotation Xrotation Yrotation
    JOINT LeftLeg
    {
      OFFSET 0.000 -32.468 0.000
      CHANNELS 3 Zrotation Xrotation Yrotation
      JOINT LeftFoot
      {
        OFFSET 0.000 -37.499 0.000
        CHANNELS 3 Zrotation Xrotation Yrotation
        End Site
        {
          OFFSET 0.000 0.000 10.046
        }
      }
    }
  }
  JOINT RightUpLeg
  {
    OFFSET -6.862 0.156 3.406
    CHANNELS 3 Zrotation Xrotation Yrotation
    JOINT RightLeg
    {
      OFFSET 0.000 -32.468 0.000
      CHANNELS 3 Zrotation Xrotation Yrotation
      JOINT RightFoot
      {
        OFFSET 0.000 -37.499 0.000
        CHANNELS 3 Zrotation Xrotation Yrotation
        End Site
        {
          OFFSET 0.000 0.000 10.046
        }
      }
    }
  }
  JOINT Spine
  {
    OFFSET 0.000 34.300 0.000
    CHANNELS 3 Zrotation Xrotation Yrotation
    JOINT Spine1
    {
      OFFSET 0.000 25.000 0.000
      CHANNELS 3 Zrotation Xrotation Yrotation
      JOINT LeftShoulder
      {
        OFFSET 1.800 -0.600 0.200
        CHANNELS 3 Zrotation Xrotation Yrotation
        JOINT LeftArm
        {
          OFFSET 15.233 0.000 0.000
          CHANNELS 3 Zrotation Xrotation Yrotation
          JOINT LeftForeArm
          {
            OFFSET 22.753 0.000 0.000
            CHANNELS 3 Zrotation Xrotation Yrotation
            JOINT LeftHand
            {
              OFFSET 21.717 0.000 0.000
              CHANNELS 3 Zrotation Xrotation Yrotation
              JOINT LeftHandThumb1
              {
                OFFSET 0.000 0.000 0.000
                CHANNELS 3 Zrotation Xrotation Yrotation
                JOINT LeftHandThumb2
                {
                  OFFSET 0.000 0.000 0.000
                  CHANNELS 3 Zrotation Xrotation Yrotation
                  JOINT LeftHandThumb3
                  {
                    OFFSET 0.000 0.000 0.000
                    CHANNELS 3 Zrotation Xrotation Yrotation
                    End Site
                    {
                      OFFSET 0.000 0.000 0.000
                    }
                  }
                }
              }
              JOINT LeftHandIndex1
              {
                OFFSET 0.000 0.000 0.000
                CHANNELS 3 Zrotation Xrotation Yrotation
                JOINT LeftHandIndex2
                {
                  OFFSET 0.000 0.000 0.000
                  CHANNELS 3 Zrotation Xrotation Yrotation
                  JOINT LeftHandIndex3
                  {
                    OFFSET 0.000 0.000 0.000
                    CHANNELS 3 Zrotation Xrotation Yrotation
                    End Site
                    {
                      OFFSET 0.000 0.000 0.000
                    }
                  }
                }
              }
              JOINT LeftHandMiddle1
              {
                OFFSET 0.000 0.000 0.000
                CHANNELS 3 Zrotation Xrotation Yrotation
                JOINT LeftHandMiddle2
                {
                  OFFSET 0.000 0.000 0.000
                  CHANNELS 3 Zrotation Xrotation Yrotation
                  JOINT LeftHandMiddle3
                  {
                    OFFSET 0.000 0.000 0.000
                    CHANNELS 3 Zrotation Xrotation Yrotation
                    End Site
                    {
                      OFFSET 0.000 0.000 0.000
                    }
                  }
                }
              }
              JOINT LeftHandRing1
              {
                OFFSET 0.000 0.000 0.000
                CHANNELS 3 Zrotation Xrotation Yrotation
                JOINT LeftHandRing2
                {
                  OFFSET 0.000 0.000 0.000
                  CHANNELS 3 Zrotation Xrotation Yrotation
                  JOINT LeftHandRing3
                  {
                    OFFSET 0.000 0.000 0.000
                    CHANNELS 3 Zrotation Xrotation Yrotation
                    End Site
                    {
                      OFFSET 0.000 0.000 0.000
                    }
                  }
                }
              }
              JOINT LeftHandPinky1
              {
                OFFSET 0.000 0.000 0.000
                CHANNELS 3 Zrotation Xrotation Yrotation
                JOINT LeftHandPinky2
                {
                  OFFSET 0.000 0.000 0.000
                  CHANNELS 3 Zrotation Xrotation Yrotation
                  JOINT LeftHandPinky3
                  {
                    OFFSET 0.000 0.000 0.000
                    CHANNELS 3 Zrotation Xrotation Yrotation
                    End Site
                    {
                      OFFSET 0.000 0.000 0.000
                    }
                  }
                }
              }
            }
          }
        }
      }
      JOINT RightShoulder
      {
        OFFSET -1.800 -0.600 0.200
        CHANNELS 3 Zrotation Xrotation Yrotation
        JOINT RightArm
        {
          OFFSET -15.233 0.000 0.000
          CHANNELS 3 Zrotation Xrotation Yrotation
          JOINT RightForeArm
          {
            OFFSET -22.753 0.000 0.000
            CHANNELS 3 Zrotation Xrotation Yrotation
            JOINT RightHand
            {
              OFFSET -21.717 0.000 0.000
              CHANNELS 3 Zrotation Xrotation Yrotation
              JOINT RightHandThumb1
              {
                OFFSET -0.000 0.000 0.000
                CHANNELS 3 Zrotation Xrotation Yrotation
                JOINT RightHandThumb2
                {
                  OFFSET -0.000 0.000 0.000
                  CHANNELS 3 Zrotation Xrotation Yrotation
                  JOINT RightHandThumb3
                  {
                    OFFSET -0.000 0.000 0.000
                    CHANNELS 3 Zrotation Xrotation Yrotation
                    End Site
                    {
                      OFFSET -0.000 0.000 0.000
                    }
                  }
                }
              }
              JOINT RightHandIndex1
              {
                OFFSET -0.000 0.000 0.000
                CHANNELS 3 Zrotation Xrotation Yrotation
                JOINT RightHandIndex2
                {
                  OFFSET -0.000 0.000 0.000
                  CHANNELS 3 Zrotation Xrotation Yrotation
                  JOINT RightHandIndex3
                  {
                    OFFSET -0.000 0.000 0.000
                    CHANNELS 3 Zrotation Xrotation Yrotation
                    End Site
                    {
                      OFFSET -0.000 0.000 0.000
                    }
                  }
                }
              }
              JOINT RightHandMiddle1
              {
                OFFSET -0.000 0.000 0.000
                CHANNELS 3 Zrotation Xrotation Yrotation
                JOINT RightHandMiddle2
                {
                  OFFSET -0.000 0.000 0.000
                  CHANNELS 3 Zrotation Xrotation Yrotation
                  JOINT RightHandMiddle3
                  {
                    OFFSET -0.000 0.000 0.000
                    CHANNELS 3 Zrotation Xrotation Yrotation
                    End Site
                    {
                      OFFSET -0.000 0.000 0.000
                    }
                  }
                }
              }
              JOINT RightHandRing1
              {
                OFFSET -0.000 0.000 0.000
                CHANNELS 3 Zrotation Xrotation Yrotation
                JOINT RightHandRing2
                {
                  OFFSET -0.000 0.000 0.000
                  CHANNELS 3 Zrotation Xrotation Yrotation
                  JOINT RightHandRing3
                  {
                    OFFSET -0.000 0.000 0.000
                    CHANNELS 3 Zrotation Xrotation Yrotation
                    End Site
                    {
                      OFFSET -0.000 0.000 0.000
                    }
                  }
                }
              }
              JOINT RightHandPinky1
              {
                OFFSET -0.000 0.000 0.000
                CHANNELS 3 Zrotation Xrotation Yrotation
                JOINT RightHandPinky2
                {
                  OFFSET -0.000 0.000 0.000
                  CHANNELS 3 Zrotation Xrotation Yrotation
                  JOINT RightHandPinky3
                  {
                    OFFSET -0.000 0.000 0.000
                    CHANNELS 3 Zrotation Xrotation Yrotation
                    End Site
                    {
                      OFFSET -0.000 0.000 0.000
                    }
                  }
                }
              }
            }
          }
        }
      }
      JOINT Neck
      {
        OFFSET 0.000 0.800 0.000
        CHANNELS 3 Zrotation Xrotation Yrotation
        JOINT Head
        {
          OFFSET 0.000 6.121 0.000
          CHANNELS 3 Zrotation Xrotation Yrotation
          End Site
          {
            OFFSET 0.000 14.638 0.000
          }
        }
      }
    }
  }
}
MOTION
Frames:	6
Frame Time:	0.033333
11.88578 82.45448 -196.99155 3.00414 5.89581 -22.54631 19.70665 -29.60238 36.14529 10.34953 50.78821 -9.08081 2.64282 36.95076 -4.39094 5.18339 -14.10650 24.93930 4.75350 9.60230 -17.52857 1.42167 11.85490 -6.88838 -0.61944 1.80470 -2.49005 -0.87474 2.22672 -2.42399 -8.60314 1.27780 -8.38494 35.61899 17.59878 -19.64325 103.24615 36.71296 -13.23933 -173.70253 1.47254 59.07145 -38.84870 -18.17666 4.02960 0.00000 -0.00000 5.00000 -0.00001 0.00000 60.00001 2.00000 -0.00000 -0.00000 2.00000 -0.00000 0.00000 2.00000 -0.00004 0.00000 -80.00000 0.00000 0.00000 -90.00000 -0.00000 0.00000 -70.00000 -0.00001 0.00000 -80.00000 0.00000 0.00000 -90.00000 -0.00000 0.00000 -70.00000 -0.00001 0.00000 2.00000 -0.00000 -0.00000 2.00000 -0.00000 0.00000 2.00000 -0.00004 0.00000 14.35196 1.63003 6.34406 4.96221 13.01965 24.82443 -107.48074 -1.70084 29.94588 -24.38602 6.78188 -2.88376 -0.00000 0.00000 -0.00000 -0.00000 0.00000 -0.00000 -0.00000 0.00000 -0.00000 -0.00000 0.00000 -0.00000 -0.00000 0.00000 -0.00000 -0.00000 0.00000 -0.00000 -0.00000 0.00000 -0.00000 -0.00000 0.00000 -0.00000 -0.00000 0.00000 -0.00000 -0.00000 0.00000 -0.00000 -0.00000 0.00000 -0.00000 -0.00000 0.00000 -0.00000 -0.00000 0.00000 -0.00000 -0.00000 0.00000 -0.00000 -0.00000 0.00000 -0.00000 0.00004 -0.00009 -0.00001 15.61877 3.09010 30.38255 
12.19758 84.02536 -192.83594 2.81273 0.18909 -20.61016 11.22081 -13.29785 0.94422 -16.36157 32.50808 17.12722 -7.74633 40.35310 11.84570 -0.96039 -0.47307 -11.41251 5.11205 1.35677 7.48746 -0.26372 14.56406 1.04928 -1.35385 5.02168 -3.34688 -1.87594 2.99612 -3.35518 -9.24061 1.32643 -8.09950 26.40304 -9.73172 -19.75871 76.01334 -23.86885 -43.74870 144.05141 -1.71465 27.00813 -38.84870 -18.17666 4.02960 0.00000 -0.00000 5.00000 -0.00001 0.00000 60.00001 2.00000 -0.00000 -0.00000 2.00000 -0.00000 0.00000 2.00000 -0.00004 0.00000 -80.00000 0.00000 0.00000 -90.00000 -0.00000 0.00000 -70.00000 -0.00001 0.00000 -80.00000 0.00000 0.00000 -90.00000 -0.00000 0.00000 -70.00000 -0.00001 0.00000 2.00000 -0.00000 -0.00000 2.00000 -0.00000 0.00000 2.00000 -0.00004 0.00000 14.29520 1.50319 5.87805 14.35788 -5.23834 24.57482 -86.20686 -23.93327 57.04090 -24.39085 -2.29770 10.19167 9.66731 0.64828 3.82076 -0.00000 0.00000 -3.87558 -0.00000 0.00000 -5.81337 7.75116 0.00000 -0.00000 9.68895 0.00000 -0.00000 11.62030 0.38836 1.89828 7.75116 0.00000 -0.00000 9.68895 0.00000 -0.00000 11.62030 0.38836 1.89828 7.75116 0.00000 -0.00000 9.68895 0.00000 -0.00000 11.62030 0.38836 1.89828 7.75116 0.00000 -0.00000 9.68895 0.00000 -0.00000 11.62030 0.38836 1.89828 0.00004 -0.00009 -0.00001 14.81476 4.13801 29.95598 
12.29236 83.89329 -192.79230 2.63339 0.36418 -20.63371 9.93256 -10.87104 -0.11543 -13.67902 27.65866 15.52112 -3.44642 30.71809 4.17975 -0.82143 -1.26555 -11.39137 4.55023 2.72993 7.53108 -0.32596 13.82518 1.44825 -1.27979 4.60257 -3.04591 -1.77519 2.83076 -3.04750 -10.01605 1.33499 -7.66525 36.19981 -4.09382 -20.63493 34.35331 -8.60234 -44.18418 156.29993 11.43861 25.77729 -38.84870 -18.17666 4.02960 0.00000 -0.00000 5.00000 -0.00001 0.00000 60.00001 2.00000 -0.00000 -0.00000 2.00000 -0.00000 0.00000 2.00000 -0.00004 0.00000 -80.00000 0.00000 0.00000 -90.00000 -0.00000 0.00000 -70.00000 -0.00001 0.00000 -80.00000 0.00000 0.00000 -90.00000 -0.00000 0.00000 -70.00000 -0.00001 0.00000 2.00000 -0.00000 -0.00000 2.00000 -0.00000 0.00000 2.00000 -0.00004 0.00000 14.99588 1.50070 5.56510 14.37497 -5.57383 25.09807 -89.82801 -23.34265 56.16875 -21.96350 -3.04503 9.08637 15.53957 1.67788 6.02277 -0.00000 0.00000 -6.25122 -0.00000 0.00000 -9.37682 12.50244 0.00000 -0.00000 15.62805 0.00000 -0.00000 18.72768 1.00265 2.96063 12.50244 0.00000 -0.00000 15.62805 0.00000 -0.00000 18.72768 1.00265 2.96063 12.50244 0.00000 -0.00000 15.62805 0.00000 -0.00000 18.72768 1.00265 2.96063 12.50244 0.00000 -0.00000 15.62805 0.00000 -0.00000 18.72768 1.00265 2.96063 0.00004 -0.00009 -0.00001 14.72658 4.43468 28.19293 
12.61530 83.51260 -192.73535 2.40369 0.53742 -20.11170 9.03052 -9.09986 -1.60439 -12.13420 24.01153 15.03863 -5.00604 34.21815 6.91203 -1.07613 -2.17641 -12.49162 3.85956 4.82843 8.14090 -0.43572 12.54440 2.44964 -1.27905 4.03142 -2.70686 -1.56940 2.65117 -2.69679 -11.78286 1.40836 -7.18705 43.95216 -1.90163 -23.16554 12.49002 -4.08934 -43.12080 -136.96417 5.52368 10.07268 -38.84870 -18.17666 4.02960 0.00000 -0.00000 5.00000 -0.00001 0.00000 60.00001 2.00000 -0.00000 -0.00000 2.00000 -0.00000 0.00000 2.00000 -0.00004 0.00000 -80.00000 0.00000 0.00000 -90.00000 -0.00000 0.00000 -70.00000 -0.00001 0.00000 -80.00000 0.00000 0.00000 -90.00000 -0.00000 0.00000 -70.00000 -0.00001 0.00000 2.00000 -0.00000 -0.00000 2.00000 -0.00000 0.00000 2.00000 -0.00004 0.00000 16.23456 1.56427 5.23191 14.50231 -6.77196 23.48431 -92.29734 -24.11969 56.33158 -21.08393 -2.88107 9.72916 19.09640 2.53222 7.27746 -0.00000 0.00000 -7.70305 -0.00000 0.00000 -11.55456 15.40609 0.00000 -0.00000 19.25760 0.00000 -0.00000 23.06238 1.50981 3.54379 15.40609 0.00000 -0.00000 19.25760 0.00000 -0.00000 23.06238 1.50981 3.54379 15.40609 0.00000 -0.00000 19.25760 0.00000 -0.00000 23.06238 1.50981 3.54379 15.40609 0.00000 -0.00000 19.25760 0.00000 -0.00000 23.06238 1.50981 3.54379 0.00004 -0.00009 -0.00001 14.41572 4.86268 26.30136 
13.11049 83.19701 -192.71463 2.03182 0.73935 -19.07546 8.89723 -7.72817 -2.74950 -11.74629 20.87448 14.80328 -6.59123 36.53740 9.37594 -1.61437 -3.87097 -14.01454 1.14444 8.87808 8.69105 -0.41072 9.74551 4.35420 -1.08503 3.54013 -2.50990 -1.29759 2.54699 -2.49444 -13.67894 1.53158 -6.90658 36.48326 -4.07269 -19.92329 33.59029 -7.67265 -49.33652 166.70947 14.95316 4.47933 -38.84922 -18.17795 4.03028 0.00000 -0.00000 4.99974 -0.00001 0.00000 60.00241 2.00117 -0.00000 -0.00000 2.00144 -0.00000 0.00000 2.00171 -0.00004 0.00026 -80.00321 0.00000 0.00000 -90.00347 -0.00000 0.00000 -70.00214 -0.00022 0.00016 -80.00321 0.00000 0.00000 -90.00347 -0.00000 0.00000 -70.00214 -0.00022 0.00016 2.00117 -0.00000 -0.00000 2.00144 -0.00000 0.00000 2.00171 -0.00004 0.00026 17.58459 1.67216 5.03523 14.51304 -8.30173 20.46271 -94.98489 -25.74353 56.65063 -19.83776 -2.17527 8.93467 21.23335 3.12783 7.99443 -0.00000 0.00000 -8.58080 -0.00000 0.00000 -12.87120 17.16160 0.00000 -0.00000 21.45200 0.00000 -0.00000 25.67954 1.86191 3.86604 17.16160 0.00000 -0.00000 21.45200 0.00000 -0.00000 25.67954 1.86191 3.86604 17.16160 0.00000 -0.00000 21.45200 0.00000 -0.00000 25.67954 1.86191 3.86604 17.16160 0.00000 -0.00000 21.45200 0.00000 -0.00000 25.67954 1.86191 3.86604 0.00004 -0.00009 -0.00001 13.77088 5.03621 24.01143 
14.02932 83.04224 -192.69377 2.10559 0.90514 -17.62833 8.54031 -6.81524 -3.72677 -11.93310 18.04974 14.56987 -7.14636 38.09171 10.25806 -4.13102 -8.11248 -16.26783 -3.01454 16.18991 10.20231 -4.10767 19.16437 10.85082 -0.91441 3.11514 -2.71970 -1.11390 2.46836 -2.71344 -15.59052 1.86094 -7.17080 31.69299 -5.64590 -17.33371 46.56992 -12.48328 -53.20644 174.50832 7.19012 3.07786 -38.78262 -18.01180 3.94317 0.00000 -0.00000 5.03399 -0.00001 0.00000 59.69411 1.85045 -0.00000 -0.00000 1.81646 -0.00000 0.00000 1.78239 0.00569 -0.03352 -79.59215 0.00000 0.00000 -89.55816 -0.00000 0.00000 -69.72834 0.02802 -0.01928 -79.59215 0.00000 0.00000 -89.55816 -0.00000 0.00000 -69.72834 0.02802 -0.01928 1.85045 -0.00000 -0.00000 1.81646 -0.00000 0.00000 1.78239 0.00569 -0.03352 18.12085 1.74036 5.09352 16.06862 -8.83338 17.39935 -98.90967 -27.61155 56.01303 -18.46490 -1.07623 8.68944 22.56525 3.52893 8.42592 -0.00000 0.00000 -9.13012 -0.00000 0.00000 -13.69519 18.26024 0.00000 -0.00000 22.82530 0.00000 -0.00000 27.31606 2.09835 4.05515 18.26024 0.00000 -0.00000 22.82530 0.00000 -0.00000 27.31606 2.09835 4.05515 18.26024 0.00000 -0.00000 22.82530 0.00000 -0.00000 27.31606 2.09835 4.05515 18.26024 0.00000 -0.00000 22.82530 0.00000 -0.00000 27.31606 2.09835 4.05515 0.00004 -0.00009 -0.00001 12.28074 4.78927 22.79942 
